<mxfile host="app.diagrams.net" modified="2023-02-07T08:27:38.350Z" agent="5.0 (Macintosh; Intel Mac OS X 10_15_7) AppleWebKit/537.36 (KHTML, like Gecko) Chrome/109.0.0.0 Safari/537.36" etag="HuEjKXWKxJ7cCD5ak9XJ" version="20.8.16" type="github">
  <diagram id="C5RBs43oDa-KdzZeNtuy" name="Page-1">
    <mxGraphModel dx="824" dy="561" grid="1" gridSize="10" guides="1" tooltips="1" connect="1" arrows="1" fold="1" page="1" pageScale="1" pageWidth="827" pageHeight="1169" math="0" shadow="0">
      <root>
        <mxCell id="WIyWlLk6GJQsqaUBKTNV-0" />
        <mxCell id="WIyWlLk6GJQsqaUBKTNV-1" parent="WIyWlLk6GJQsqaUBKTNV-0" />
        <mxCell id="l_-BqYWKeUryHRCesAHR-16" value="管理中心" style="rounded=1;whiteSpace=wrap;html=1;fontSize=12;glass=0;strokeWidth=1;shadow=0;labelBackgroundColor=none;fillColor=none;verticalAlign=bottom;arcSize=7;dashed=1;" vertex="1" parent="WIyWlLk6GJQsqaUBKTNV-1">
          <mxGeometry x="450" y="30" width="145" height="370" as="geometry" />
        </mxCell>
        <mxCell id="l_-BqYWKeUryHRCesAHR-55" style="edgeStyle=orthogonalEdgeStyle;rounded=0;orthogonalLoop=1;jettySize=auto;html=1;exitX=1;exitY=0.5;exitDx=0;exitDy=0;entryX=0.75;entryY=0;entryDx=0;entryDy=0;fontColor=#000000;" edge="1" parent="WIyWlLk6GJQsqaUBKTNV-1" source="l_-BqYWKeUryHRCesAHR-48" target="DzplGdxmA9fShSmXFP6H-10">
          <mxGeometry relative="1" as="geometry" />
        </mxCell>
        <mxCell id="l_-BqYWKeUryHRCesAHR-48" value="" style="rounded=1;whiteSpace=wrap;html=1;dashed=1;sketch=0;" vertex="1" parent="WIyWlLk6GJQsqaUBKTNV-1">
          <mxGeometry x="400" y="160" width="90" height="90" as="geometry" />
        </mxCell>
        <mxCell id="WIyWlLk6GJQsqaUBKTNV-3" value="生产中心" style="rounded=1;whiteSpace=wrap;html=1;fontSize=12;glass=0;strokeWidth=1;shadow=0;labelBackgroundColor=none;fillColor=none;verticalAlign=bottom;arcSize=7;dashed=1;" parent="WIyWlLk6GJQsqaUBKTNV-1" vertex="1">
          <mxGeometry x="60" y="30" width="145" height="370" as="geometry" />
        </mxCell>
        <mxCell id="l_-BqYWKeUryHRCesAHR-53" style="edgeStyle=orthogonalEdgeStyle;rounded=0;orthogonalLoop=1;jettySize=auto;html=1;exitX=0;exitY=0.5;exitDx=0;exitDy=0;entryX=0.646;entryY=0;entryDx=0;entryDy=0;entryPerimeter=0;fontColor=#000000;" edge="1" parent="WIyWlLk6GJQsqaUBKTNV-1" source="l_-BqYWKeUryHRCesAHR-47" target="yMlvhr82IjSgIiDCawbg-2">
          <mxGeometry relative="1" as="geometry" />
        </mxCell>
        <mxCell id="l_-BqYWKeUryHRCesAHR-47" value="" style="rounded=1;whiteSpace=wrap;html=1;dashed=1;sketch=0;" vertex="1" parent="WIyWlLk6GJQsqaUBKTNV-1">
          <mxGeometry x="170" y="160" width="90" height="90" as="geometry" />
        </mxCell>
        <mxCell id="l_-BqYWKeUryHRCesAHR-17" value="消费中心" style="rounded=1;whiteSpace=wrap;html=1;fontSize=12;glass=0;strokeWidth=1;shadow=0;labelBackgroundColor=none;fillColor=none;verticalAlign=bottom;arcSize=7;dashed=1;" vertex="1" parent="WIyWlLk6GJQsqaUBKTNV-1">
          <mxGeometry x="614" y="30" width="126" height="370" as="geometry" />
        </mxCell>
        <mxCell id="yMlvhr82IjSgIiDCawbg-2" value="后端工程" style="rounded=1;whiteSpace=wrap;html=1;fillColor=#dae8fc;strokeColor=#6c8ebf;verticalAlign=middle;" parent="WIyWlLk6GJQsqaUBKTNV-1" vertex="1">
          <mxGeometry x="72.5" y="287" width="120" height="70" as="geometry" />
        </mxCell>
        <mxCell id="yMlvhr82IjSgIiDCawbg-1" value="前端vue工程" style="rounded=1;whiteSpace=wrap;html=1;fillColor=#dae8fc;strokeColor=#6c8ebf;" parent="WIyWlLk6GJQsqaUBKTNV-1" vertex="1">
          <mxGeometry x="72.5" y="70" width="120" height="60" as="geometry" />
        </mxCell>
        <mxCell id="DzplGdxmA9fShSmXFP6H-3" value="tiptap迁移&lt;br&gt;&lt;br&gt;vue 组件" style="rounded=1;whiteSpace=wrap;html=1;fillColor=#fa6800;strokeColor=#C73500;verticalAlign=middle;fontColor=#ffffff;" parent="WIyWlLk6GJQsqaUBKTNV-1" vertex="1">
          <mxGeometry x="115.70999999999998" y="40" width="76.79" height="50" as="geometry" />
        </mxCell>
        <mxCell id="DzplGdxmA9fShSmXFP6H-9" value="前端工程" style="rounded=1;whiteSpace=wrap;html=1;fillColor=#bac8d3;strokeColor=#23445d;" parent="WIyWlLk6GJQsqaUBKTNV-1" vertex="1">
          <mxGeometry x="462.5" y="70" width="120" height="60" as="geometry" />
        </mxCell>
        <mxCell id="DzplGdxmA9fShSmXFP6H-10" value="后端工程" style="rounded=1;whiteSpace=wrap;html=1;fillColor=#bac8d3;strokeColor=#23445d;" parent="WIyWlLk6GJQsqaUBKTNV-1" vertex="1">
          <mxGeometry x="462.5" y="287.5" width="120" height="70" as="geometry" />
        </mxCell>
        <mxCell id="DzplGdxmA9fShSmXFP6H-27" value="web平台" style="rounded=1;whiteSpace=wrap;html=1;fillColor=#bac8d3;strokeColor=#23445d;" parent="WIyWlLk6GJQsqaUBKTNV-1" vertex="1">
          <mxGeometry x="630.5" y="70" width="95" height="70" as="geometry" />
        </mxCell>
        <mxCell id="DzplGdxmA9fShSmXFP6H-28" value="APP平台" style="rounded=1;whiteSpace=wrap;html=1;fillColor=#bac8d3;strokeColor=#23445d;" parent="WIyWlLk6GJQsqaUBKTNV-1" vertex="1">
          <mxGeometry x="635.5" y="195" width="90" height="70" as="geometry" />
        </mxCell>
        <mxCell id="l_-BqYWKeUryHRCesAHR-27" value="Jar包" style="rounded=1;whiteSpace=wrap;html=1;dashed=1;sketch=0;fillColor=#fa6800;fontColor=#ffffff;strokeColor=#C73500;" vertex="1" parent="WIyWlLk6GJQsqaUBKTNV-1">
          <mxGeometry x="72.5" y="270" width="67.5" height="40" as="geometry" />
        </mxCell>
        <mxCell id="l_-BqYWKeUryHRCesAHR-32" value="tiptap迁移&lt;br&gt;&lt;br&gt;vue 组件" style="rounded=1;whiteSpace=wrap;html=1;fillColor=#fa6800;strokeColor=#C73500;verticalAlign=middle;fontColor=#ffffff;" vertex="1" parent="WIyWlLk6GJQsqaUBKTNV-1">
          <mxGeometry x="505.71" y="40" width="76.79" height="50" as="geometry" />
        </mxCell>
        <mxCell id="l_-BqYWKeUryHRCesAHR-33" value="tiptap迁移&lt;br&gt;&lt;br&gt;vue 组件" style="rounded=1;whiteSpace=wrap;html=1;fillColor=#fa6800;strokeColor=#C73500;verticalAlign=middle;fontColor=#ffffff;" vertex="1" parent="WIyWlLk6GJQsqaUBKTNV-1">
          <mxGeometry x="648.71" y="40" width="76.79" height="50" as="geometry" />
        </mxCell>
        <mxCell id="l_-BqYWKeUryHRCesAHR-34" value="tiptap迁移&lt;br&gt;&lt;br&gt;vue 组件" style="rounded=1;whiteSpace=wrap;html=1;fillColor=#fa6800;strokeColor=#C73500;verticalAlign=middle;fontColor=#ffffff;" vertex="1" parent="WIyWlLk6GJQsqaUBKTNV-1">
          <mxGeometry x="648.71" y="165" width="76.79" height="50" as="geometry" />
        </mxCell>
        <mxCell id="l_-BqYWKeUryHRCesAHR-35" value="Jar包" style="rounded=1;whiteSpace=wrap;html=1;dashed=1;sketch=0;fillColor=#fa6800;fontColor=#ffffff;strokeColor=#C73500;" vertex="1" parent="WIyWlLk6GJQsqaUBKTNV-1">
          <mxGeometry x="462.5" y="270" width="67.5" height="40" as="geometry" />
        </mxCell>
        <mxCell id="l_-BqYWKeUryHRCesAHR-52" style="edgeStyle=orthogonalEdgeStyle;rounded=0;orthogonalLoop=1;jettySize=auto;html=1;exitX=0;exitY=0.5;exitDx=0;exitDy=0;entryX=1;entryY=0.5;entryDx=0;entryDy=0;fontColor=#000000;" edge="1" parent="WIyWlLk6GJQsqaUBKTNV-1" source="l_-BqYWKeUryHRCesAHR-40" target="l_-BqYWKeUryHRCesAHR-47">
          <mxGeometry relative="1" as="geometry" />
        </mxCell>
        <mxCell id="l_-BqYWKeUryHRCesAHR-54" style="edgeStyle=orthogonalEdgeStyle;rounded=0;orthogonalLoop=1;jettySize=auto;html=1;exitX=1;exitY=0.5;exitDx=0;exitDy=0;fontColor=#000000;" edge="1" parent="WIyWlLk6GJQsqaUBKTNV-1" source="l_-BqYWKeUryHRCesAHR-40" target="l_-BqYWKeUryHRCesAHR-48">
          <mxGeometry relative="1" as="geometry" />
        </mxCell>
        <mxCell id="l_-BqYWKeUryHRCesAHR-40" value="EAIP" style="rounded=0;whiteSpace=wrap;html=1;dashed=1;sketch=0;fillColor=#b1ddf0;strokeColor=#10739e;" vertex="1" parent="WIyWlLk6GJQsqaUBKTNV-1">
          <mxGeometry x="310" y="30" width="47" height="370" as="geometry" />
        </mxCell>
        <mxCell id="l_-BqYWKeUryHRCesAHR-42" value="研报JSON" style="shape=document;whiteSpace=wrap;html=1;boundedLbl=1;dashed=1;sketch=0;fontColor=#000000;fillColor=#F2CC8F;gradientColor=none;" vertex="1" parent="WIyWlLk6GJQsqaUBKTNV-1">
          <mxGeometry x="180" y="170" width="70" height="30" as="geometry" />
        </mxCell>
        <mxCell id="l_-BqYWKeUryHRCesAHR-43" value="Zip" style="shape=document;whiteSpace=wrap;html=1;boundedLbl=1;dashed=1;sketch=0;fontColor=#000000;fillColor=#F2CC8F;gradientColor=none;" vertex="1" parent="WIyWlLk6GJQsqaUBKTNV-1">
          <mxGeometry x="180" y="210" width="70" height="30" as="geometry" />
        </mxCell>
        <mxCell id="l_-BqYWKeUryHRCesAHR-44" value="研报JSON" style="shape=document;whiteSpace=wrap;html=1;boundedLbl=1;dashed=1;sketch=0;fontColor=#000000;fillColor=#F2CC8F;gradientColor=none;" vertex="1" parent="WIyWlLk6GJQsqaUBKTNV-1">
          <mxGeometry x="410" y="170" width="70" height="30" as="geometry" />
        </mxCell>
        <mxCell id="l_-BqYWKeUryHRCesAHR-45" value="Zip" style="shape=document;whiteSpace=wrap;html=1;boundedLbl=1;dashed=1;sketch=0;fontColor=#000000;fillColor=#F2CC8F;gradientColor=none;" vertex="1" parent="WIyWlLk6GJQsqaUBKTNV-1">
          <mxGeometry x="410" y="210" width="70" height="30" as="geometry" />
        </mxCell>
      </root>
    </mxGraphModel>
  </diagram>
</mxfile>
